<?xml version="1.0" encoding="UTF-8" standalone="no"?>
            <svg
               xmlns="http://www.w3.org/2000/svg"
               xmlns:svg="http://www.w3.org/2000/svg"
               width="100"
               height="100"
               version="1.1"
               id="svg1"
               viewBox="0 0 100 100"
               >
               <path fill="black" d="M48.93 74.43L47.33 74.43L29.10 24.59L35.39 24.59L50.57 65.61L64.77 24.59L66.15 24.59L48.93 74.43ZM23.43 24.59L29.75 24.59L29.75 72.49L34.61 72.49L34.61 73.77L23.75 73.77L23.75 72.49L28.41 72.49L28.41 25.87L23.43 25.87L23.43 24.59ZM65.79 24.59L76.61 24.59L76.61 25.87L72.02 25.87L72.02 72.49L76.61 72.49L76.61 73.77L60.51 73.77L60.51 72.49L65.79 72.49L65.79 24.59Z"/>
            </svg>