<?xml version="1.0" encoding="UTF-8" standalone="no"?>
            <svg
               xmlns="http://www.w3.org/2000/svg"
               xmlns:svg="http://www.w3.org/2000/svg"
               width="100"
               height="100"
               version="1.1"
               id="svg1"
               viewBox="0 0 100 100"
               >
               <path fill="black" d="M19.16 77.55L19.16 77.55Q18.16 77.55 17.55 77.36Q16.93 77.16 16.93 76.70L16.93 76.70Q16.93 76.17 17.55 75.86Q18.16 75.56 19.46 75.33L19.46 75.33Q21.38 74.94 22.61 73.49Q23.83 72.03 24.21 69.35L24.21 69.35Q25.13 62.45 25.82 56.21Q26.51 49.96 26.93 44.94Q27.36 39.92 27.36 36.70L27.36 36.70Q27.36 36.09 27.36 35.40Q27.36 34.71 27.28 34.18L27.28 34.18Q27.20 33.56 27.05 32.91Q26.90 32.26 26.13 31.65L26.13 31.65Q24.75 30.50 23.45 30.08Q22.15 29.66 20.38 29.35L20.38 29.35Q19.62 29.20 19.16 28.77Q18.70 28.35 18.70 27.82L18.70 27.82Q18.70 27.20 19.43 27.09Q20.15 26.97 21.30 26.97L21.30 26.97Q22.07 26.97 23.64 27.05Q25.21 27.13 27.05 27.28Q28.89 27.43 30.46 27.51Q32.03 27.59 32.80 27.59L32.80 27.59Q33.33 27.59 33.72 27.89Q34.10 28.20 34.25 28.81L34.25 28.81Q34.64 30.19 35.02 31.72Q35.40 33.26 35.94 34.71L35.94 34.71L48.05 65.44Q48.28 65.98 48.89 66.09Q49.50 66.21 49.81 65.67L49.81 65.67L64.90 34.25Q65.29 32.95 65.67 31.34Q66.05 29.73 66.28 28.51L66.28 28.51Q66.51 27.51 67.05 27.51L67.05 27.51L69.81 27.51Q72.11 27.51 74.67 27.20Q77.24 26.90 78.54 26.90L78.54 26.90Q78.93 26.90 79.54 27.01Q80.15 27.13 80.15 27.66L80.15 27.66Q80.15 28.20 79.73 28.51Q79.31 28.81 78.16 29.27L78.16 29.27Q77.16 29.66 75.94 30.11Q74.71 30.57 73.64 31.03L73.64 31.03Q72.87 31.34 72.34 32.07Q71.80 32.80 71.80 33.64L71.80 33.64Q71.80 39.00 71.99 43.72Q72.18 48.43 72.41 52.76Q72.64 57.09 72.95 61.30Q73.26 65.52 73.49 69.89L73.49 69.89Q73.64 72.26 75.02 73.52Q76.40 74.79 79.23 75.33L79.23 75.33Q80.54 75.56 81.15 75.86Q81.76 76.17 81.76 76.70L81.76 76.70Q81.76 77.16 81.15 77.36Q80.54 77.55 79.54 77.55L79.54 77.55Q77.47 77.55 76.13 77.43Q74.79 77.32 73.56 77.24Q72.34 77.16 70.57 77.16L70.57 77.16Q69.04 77.16 68.01 77.24Q66.97 77.32 65.79 77.43Q64.60 77.55 62.53 77.55L62.53 77.55Q61.53 77.55 60.92 77.36Q60.31 77.16 60.31 76.70L60.31 76.70Q60.31 76.17 60.92 75.82Q61.53 75.48 62.84 75.33L62.84 75.33Q65.06 75.02 65.90 73.75Q66.74 72.49 66.74 69.81L66.74 69.81Q66.74 64.29 66.63 59.85Q66.51 55.40 66.28 51.07Q66.05 46.74 65.82 41.61L65.82 41.61Q65.75 40.77 65.36 40.80Q64.98 40.84 64.60 41.61L64.60 41.61L46.97 77.55Q46.82 77.93 46.28 77.97Q45.75 78.01 45.59 77.47L45.59 77.47Q42.61 68.51 39.20 59.81Q35.79 51.11 31.49 41.07L31.49 41.07Q31.34 40.69 30.96 40.69Q30.57 40.69 30.50 41.07L30.50 41.07Q29.81 46.44 29.23 50.92Q28.66 55.40 28.35 59.77Q28.05 64.14 28.05 69.35L28.05 69.35Q28.05 71.42 29.35 73.14Q30.65 74.87 33.03 75.33L33.03 75.33Q34.33 75.56 34.94 75.86Q35.56 76.17 35.56 76.70L35.56 76.70Q35.56 77.16 34.94 77.36Q34.33 77.55 33.33 77.55L33.33 77.55Q31.26 77.55 30.23 77.43Q29.20 77.32 28.39 77.24Q27.59 77.16 26.13 77.16L26.13 77.16Q24.75 77.16 23.98 77.24Q23.22 77.32 22.22 77.43Q21.23 77.55 19.16 77.55Z"/>
            </svg>