<?xml version="1.0" encoding="UTF-8" standalone="no"?>
            <svg
               xmlns="http://www.w3.org/2000/svg"
               xmlns:svg="http://www.w3.org/2000/svg"
               width="100"
               height="100"
               version="1.1"
               id="svg1"
               viewBox="0 0 100 100"
               >
               <path fill="black" d="M34.84 74.64L29.60 74.64L29.60 25.21L36.73 25.21L46.36 52.00Q47.29 54.60 48.16 57.19Q49.04 59.77 49.93 62.38L49.93 62.38L50.21 62.38Q51.14 59.77 51.96 57.19Q52.78 54.60 53.67 52.00L53.67 52.00L63.16 25.21L70.40 25.21L70.40 74.64L64.91 74.64L64.91 46.65Q64.91 43.44 65.16 39.23Q65.41 35.02 65.66 31.74L65.66 31.74L65.34 31.74L61.45 43.40L51.96 69.61L47.90 69.61L38.41 43.40L34.49 31.74L34.17 31.74Q34.42 35.02 34.63 39.23Q34.84 43.44 34.84 46.65L34.84 46.65L34.84 74.64Z"/>
            </svg>