<?xml version="1.0" encoding="UTF-8" standalone="no"?>
            <svg
               xmlns="http://www.w3.org/2000/svg"
               xmlns:svg="http://www.w3.org/2000/svg"
               width="100"
               height="100"
               version="1.1"
               id="svg1"
               viewBox="0 0 200 100"
               >
               <path fill="black" d="M-69.58 78.48L-78.82 78.48L-96.54 29.49L-85.89 29.49L-69.88 76.40L-75.61 76.40L-60.28 29.49L-50.97 29.49L-69.58 78.48ZM-34.14 78.48L-42.78 78.48L-42.78 47.88L-34.14 46.31L-34.14 78.48ZM-38.46 40.28L-38.46 40.28Q-40.92 40.28-42.41 38.87Q-43.89 37.45-43.89 35.07L-43.89 35.07Q-43.89 32.69-42.41 31.24Q-40.92 29.78-38.46 29.78L-38.46 29.78Q-36.08 29.78-34.59 31.24Q-33.10 32.69-33.10 35.07L-33.10 35.07Q-33.10 37.45-34.59 38.87Q-36.08 40.28-38.46 40.28ZM-12.47 78.48L-21.18 78.48L-21.18 47.28Q-21.18 40.06-18.65 35.22Q-16.12 30.38-11.91 27.96Q-7.71 25.54-2.64 25.54L-2.64 25.54Q0.11 25.54 2.49 26.21Q4.88 26.88 6.96 28.59L6.96 28.59L3.02 34.77Q1.08 33.06-0.89 32.32Q-2.87 31.57-4.58 31.57L-4.58 31.57Q-6.66 31.57-8.15 32.35Q-9.64 33.13-10.61 34.74Q-11.58 36.34-12.03 38.87Q-12.47 41.40-12.47 44.90L-12.47 44.90L-12.47 78.48ZM-1.68 52.79L-26.77 52.64L-26.25 47.73L-1.15 47.13L-1.68 52.79ZM43.89 66.42L43.89 66.42Q43.89 64.41 42.70 62.92Q41.51 61.43 39.54 60.24Q37.57 59.05 35.26 57.93Q32.95 56.81 30.60 55.55Q28.26 54.28 26.28 52.64Q24.31 51.01 23.12 48.77Q21.93 46.54 21.93 43.48L21.93 43.48Q21.93 38.72 24.20 35.41Q26.47 32.09 30.23 30.31Q33.99 28.52 38.53 28.52L38.53 28.52Q41.36 28.52 44.79 29.19Q48.21 29.86 50.89 31.20L50.89 31.20L47.62 39.69Q45.31 37.68 42.26 36.60Q39.20 35.52 36.75 35.52L36.75 35.52Q34.44 35.52 33.10 36.41Q31.76 37.30 31.20 38.61Q30.64 39.91 30.64 41.10L30.64 41.10Q30.64 42.89 31.83 44.23Q33.02 45.57 35.00 46.72Q36.97 47.88 39.35 48.99Q41.73 50.11 44.08 51.45Q46.43 52.79 48.40 54.54Q50.37 56.29 51.56 58.56Q52.76 60.83 52.76 63.96L52.76 63.96Q52.76 69.02 50.30 72.49Q47.84 75.95 43.86 77.70Q39.87 79.45 35.18 79.45L35.18 79.45Q30.34 79.45 26.25 78.03Q22.15 76.62 19.55 74.76L19.55 74.76L24.09 66.94Q26.84 69.25 30.34 70.77Q33.84 72.30 37.19 72.30L37.19 72.30Q40.10 72.30 42.00 70.74Q43.89 69.17 43.89 66.42ZM74.94 79.45L74.94 79.45Q70.25 79.45 66.60 77.36Q62.96 75.28 60.87 71.67Q58.79 68.06 58.79 63.37L58.79 63.37Q58.79 58.38 61.13 54.50Q63.48 50.63 67.50 48.40Q71.52 46.17 76.58 46.17L76.58 46.17Q79.86 46.17 82.46 47.17Q85.07 48.18 87.16 50.04L87.16 50.04L83.58 56.66Q81.65 54.65 79.67 53.54Q77.70 52.42 75.47 52.42L75.47 52.42Q72.93 52.42 71.26 53.80Q69.58 55.17 68.80 57.45Q68.02 59.72 68.02 62.40L68.02 62.40Q68.02 65.67 69.25 68.02Q70.48 70.36 72.60 71.59Q74.72 72.82 77.33 72.82L77.33 72.82Q79.19 72.82 81.12 72.00Q83.06 71.18 84.92 69.55L84.92 69.55L87.45 74.39Q85.44 76.32 83.25 77.44Q81.05 78.56 78.97 79.00Q76.88 79.45 74.94 79.45ZM125.28 78.48L116.64 78.48L116.64 61.13Q116.64 57.33 115.00 55.14Q113.37 52.94 110.31 52.94L110.31 52.94Q108.67 52.94 106.92 53.54Q105.17 54.13 103.65 55.25Q102.12 56.37 101.23 58.00L101.23 58.00L98.47 56.14Q100.56 53.02 103.05 50.89Q105.55 48.77 108.34 47.69Q111.13 46.61 114.18 46.61L114.18 46.61Q118.80 46.61 122.04 49.63Q125.28 52.64 125.28 58.00L125.28 58.00L125.28 78.48ZM103.46 78.48L94.97 78.48L94.97 26.36L103.46 24.80L103.46 78.48ZM148.06 79.45L148.06 79.45Q143.60 79.45 140.10 77.62Q136.60 75.80 134.62 72.30Q132.65 68.80 132.65 63.89L132.65 63.89Q132.65 58.60 134.88 54.62Q137.12 50.63 140.92 48.40Q144.71 46.17 149.48 46.17L149.48 46.17Q155.51 46.17 158.56 49.81Q161.62 53.46 161.62 59.64L161.62 59.64Q161.62 60.46 161.58 61.54Q161.54 62.62 161.39 63.59L161.39 63.59L154.10 63.59L154.10 59.49Q154.10 55.99 152.90 54.06Q151.71 52.12 148.66 52.12L148.66 52.12Q146.20 52.12 144.42 53.43Q142.63 54.73 141.70 57.07Q140.77 59.42 140.77 62.55L140.77 62.55Q140.77 67.39 143.30 70.10Q145.83 72.82 149.93 72.82L149.93 72.82Q152.23 72.82 154.43 71.97Q156.63 71.11 158.64 69.40L158.64 69.40L161.39 73.86Q159.23 76.02 156.92 77.25Q154.62 78.48 152.38 78.97Q150.15 79.45 148.06 79.45ZM160.42 63.59L136.82 63.59L137.79 58.45L160.42 58.45L160.42 63.59ZM192.00 79.08L192.00 79.08Q188.64 79.08 186.67 76.73Q184.70 74.39 184.77 69.84L184.77 69.84L185.07 57.19Q185.15 55.25 184.77 54.10Q184.40 52.94 183.66 52.42Q182.91 51.90 181.79 51.90L181.79 51.90Q180.68 51.90 179.41 52.38Q178.15 52.87 177.22 54.10Q176.28 55.32 176.14 57.48L176.14 57.48L167.87 56.52Q168.32 54.28 169.69 52.42Q171.07 50.56 173.16 49.18Q175.24 47.80 177.81 47.06Q180.38 46.31 183.21 46.31L183.21 46.31Q188.50 46.31 190.77 48.96Q193.04 51.60 192.96 55.99L192.96 55.99L192.81 71.48Q192.81 72.30 193.22 72.71Q193.63 73.12 194.23 73.12L194.23 73.12Q194.83 73.12 195.38 72.90Q195.94 72.67 196.39 72.30L196.39 72.30L198.77 76.32Q197.65 77.51 195.90 78.29Q194.15 79.08 192.00 79.08ZM175.54 79.08L175.54 79.08Q171.74 79.08 169.43 76.95Q167.13 74.83 167.13 71.48L167.13 71.48Q167.13 69.55 167.98 67.80Q168.84 66.05 171.07 64.63Q173.31 63.22 177.40 62.32L177.40 62.32L189.54 59.64L189.91 63.44L179.41 66.49Q177.10 67.16 176.40 68.17Q175.69 69.17 175.69 70.14L175.69 70.14Q175.69 71.33 176.55 72.08Q177.40 72.82 178.82 72.82L178.82 72.82Q180.68 72.82 183.43 71.48Q186.19 70.14 189.61 68.35L189.61 68.35L189.76 71.26Q186.49 74.46 182.99 76.77Q179.49 79.08 175.54 79.08Z"/>
            </svg>