<?xml version="1.0" encoding="UTF-8" standalone="no"?>
            <svg
               xmlns="http://www.w3.org/2000/svg"
               xmlns:svg="http://www.w3.org/2000/svg"
               width="100"
               height="100"
               version="1.1"
               id="svg1"
               viewBox="0 0 100 100"
               >
               <path fill="black" d="M-84.57 34.87L-85.16 35.24Q-87.46 32.49-87.46 29.78Q-87.46 27.08-86.20 25.11Q-84.94 23.15-82.12 21.77Q-79.30 20.40-75.74 20.40L-75.74 20.40L-45.33 20.40Q-43.03 20.40-40.24 19.96Q-37.46 19.51-36.35 19.07L-36.35 19.07L-36.35 28.41L-37.09 28.34L-37.09 27.08Q-37.09 25.30-38.35 24.00Q-39.61 22.70-41.32 22.63L-41.32 22.63L-55.42 22.63L-55.42 67.06Q-55.34 69.73-53.04 71.07L-53.04 71.07Q-51.93 71.66-50.67 71.66L-50.67 71.66L-49.70 71.66L-49.70 72.40L-65.95 72.40L-65.95 71.66L-64.99 71.66Q-63.06 71.66-61.68 70.33Q-60.31 68.99-60.24 67.14L-60.24 67.14L-60.24 22.63L-75.74 22.63Q-81.68 22.63-84.35 26.41L-84.35 26.41Q-85.76 28.34-85.76 30.45Q-85.76 32.57-84.57 34.87L-84.57 34.87ZM19.14 71.66L19.14 71.66L20.03 71.66L20.03 72.40L3.86 72.40L3.86 71.66L4.82 71.66Q6.68 71.66 8.05 70.36Q9.42 69.07 9.57 67.14L9.57 67.14L9.57 47.85L-19.14 47.85L-19.14 67.21Q-19.14 77.60-24.18 81.16L-24.18 81.16Q-26.48 82.79-30.12 83.61L-30.12 83.61L-30.49 82.94Q-27.15 81.16-25.56 77.45Q-23.96 73.74-23.96 67.21L-23.96 67.21L-23.96 25.82Q-23.96 23.89-25.37 22.55Q-26.78 21.22-28.71 21.22L-28.71 21.22L-29.60 21.22L-29.60 20.47L-13.43 20.47L-13.43 21.22L-14.39 21.22Q-16.32 21.22-17.69 22.55Q-19.07 23.89-19.14 25.82L-19.14 25.82L-19.14 45.62L9.57 45.62L9.57 27.15Q9.64 17.66 13.80 13.95L13.80 13.95Q16.32 11.72 20.62 10.76L20.62 10.76L20.99 11.42Q17.66 13.20 16.02 16.91Q14.39 20.62 14.39 27.15L14.39 27.15L14.39 66.99Q14.39 68.92 15.76 70.29Q17.14 71.66 19.14 71.66ZM65.21 37.61L64.47 37.76Q64.17 36.80 64.17 36.09Q64.17 35.39 64.24 34.50Q64.32 33.61 64.58 32.05Q64.84 30.49 65.58 28.97Q66.32 27.45 67.28 26.04Q68.25 24.63 69.77 23.44Q71.29 22.26 73.15 21.36L73.15 21.36Q77.08 19.44 82.72 19.44L82.72 19.44Q94.07 19.44 101.22 26.97Q108.38 34.50 108.38 46.22Q108.38 57.94 99.93 65.69Q91.47 73.44 78.49 73.44Q65.50 73.44 56.94 65.73Q48.37 58.01 48.37 45.70L48.37 45.70Q48.37 37.76 52.08 31.60Q55.79 25.45 62.69 21.96L62.69 21.96L63.13 22.63Q58.31 25.82 56.19 31.82Q54.08 37.83 54.08 44.58L54.08 44.58Q54.08 57.12 60.91 64.17Q67.73 71.22 78.41 71.22Q89.09 71.22 95.88 64.13Q102.67 57.05 102.67 45.47L102.67 45.47Q102.67 35.46 97.29 28.56Q91.91 21.66 82.12 21.66L82.12 21.66Q77.74 21.66 74.18 23.22L74.18 23.22Q67.73 25.96 65.65 32.27L65.65 32.27Q65.06 34.12 65.06 35.46Q65.06 36.80 65.21 37.61L65.21 37.61ZM193.32 84.42L193.32 84.42Q193.77 84.42 194.21 84.42L194.21 84.42L194.21 85.16Q192.14 85.46 189.58 85.46Q187.02 85.46 183.27 84.35Q179.53 83.23 176.48 80.19L176.48 80.19Q170.25 73.96 168.92 64.02L168.92 64.02L164.39 31.01L148.96 65.88Q146.88 70.40 146.44 73.44L146.44 73.44L145.70 73.44L126.48 31.68L123.22 68.55Q123.07 69.81 124.00 70.77Q124.93 71.74 126.04 71.74L126.04 71.74Q126.04 71.74 126.04 71.74L126.04 71.74L127.23 71.74L127.23 72.40L112.83 72.40L112.83 71.66L114.02 71.66Q116.02 71.66 117.54 70.44Q119.07 69.21 119.44 67.21L119.44 67.21L124.11 26.71Q117.58 13.87 108.46 13.87L108.46 13.87Q107.64 13.87 106.75 13.95L106.75 13.95L106.75 13.20Q108.75 12.69 110.01 12.69Q111.28 12.69 112.76 12.80Q114.24 12.91 116.25 13.50Q118.25 14.09 120.03 15.24Q121.81 16.39 123.15 17.62Q124.48 18.84 125.67 20.33L125.67 20.33Q127.67 23.00 128.86 25.45L128.86 25.45L146.74 64.17L166.69 19.44L167.36 19.44L174.26 63.35Q175.82 73.74 180.97 79.08Q186.13 84.42 193.32 84.42Z"/>
            </svg>