<?xml version="1.0" encoding="UTF-8" standalone="no"?>
            <svg
               xmlns="http://www.w3.org/2000/svg"
               xmlns:svg="http://www.w3.org/2000/svg"
               width="200"
               height="100"
               version="1.1"
               id="svg1"
               viewBox="0 0 200 100"
               >
               <path d="M13.21 32.75L13.21 27.22L30.94 27.22L44.41 61.63L57.73 27.22L74.82 27.22L74.82 32.75L67.28 32.75L67.28 68.93L74.82 68.93L74.82 74.47L55.72 74.47L55.72 68.93L60.86 68.93L60.86 32.75L57.25 43.18L47.46 68.77L40.56 68.77L30.29 43.02L26.60 32.75L26.36 68.93L31.66 68.93L31.66 74.47L12.89 74.47L12.89 68.93L20.59 68.93L20.67 32.75L13.21 32.75Z"/><path d="M81.05 74.48L81.05 74.48Q80.17 74.48 79.62 74.31Q79.08 74.14 79.08 73.74L79.08 73.74Q79.08 73.26 79.62 72.99Q80.17 72.71 81.33 72.51L81.33 72.51Q83.03 72.17 84.12 70.88Q85.21 69.58 85.55 67.20L85.55 67.20Q86.37 61.07 86.98 55.52Q87.59 49.97 87.97 45.50Q88.34 41.04 88.34 38.18L88.34 38.18Q88.34 37.64 88.34 37.03Q88.34 36.41 88.27 35.94L88.27 35.94Q88.20 35.39 88.07 34.81Q87.93 34.23 87.25 33.69L87.25 33.69Q86.02 32.67 84.87 32.29Q83.71 31.92 82.14 31.64L82.14 31.64Q81.46 31.51 81.05 31.13Q80.64 30.76 80.64 30.28L80.64 30.28Q80.64 29.74 81.29 29.64Q81.94 29.53 82.96 29.53L82.96 29.53Q83.64 29.53 85.04 29.60Q86.43 29.67 88.07 29.81Q89.70 29.94 91.10 30.01Q92.49 30.08 93.18 30.08L93.18 30.08Q93.65 30.08 93.99 30.35Q94.33 30.62 94.47 31.17L94.47 31.17Q94.81 32.39 95.15 33.76Q95.49 35.12 95.97 36.41L95.97 36.41L106.73 63.72Q106.93 64.20 107.48 64.30Q108.02 64.40 108.30 63.93L108.30 63.93L121.71 36.00Q122.05 34.85 122.39 33.42Q122.73 31.99 122.94 30.90L122.94 30.90Q123.14 30.01 123.62 30.01L123.62 30.01L126.07 30.01Q128.12 30.01 130.40 29.74Q132.68 29.47 133.84 29.47L133.84 29.47Q134.18 29.47 134.72 29.57Q135.27 29.67 135.27 30.15L135.27 30.15Q135.27 30.62 134.89 30.90Q134.52 31.17 133.50 31.58L133.50 31.58Q132.61 31.92 131.52 32.33Q130.43 32.73 129.48 33.14L129.48 33.14Q128.80 33.42 128.32 34.06Q127.84 34.71 127.84 35.46L127.84 35.46Q127.84 40.23 128.01 44.42Q128.18 48.60 128.39 52.45Q128.59 56.30 128.86 60.05Q129.14 63.79 129.34 67.67L129.34 67.67Q129.48 69.79 130.70 70.91Q131.93 72.03 134.45 72.51L134.45 72.51Q135.61 72.71 136.15 72.99Q136.70 73.26 136.70 73.74L136.70 73.74Q136.70 74.14 136.15 74.31Q135.61 74.48 134.72 74.48L134.72 74.48Q132.88 74.48 131.69 74.38Q130.50 74.28 129.41 74.21Q128.32 74.14 126.75 74.14L126.75 74.14Q125.39 74.14 124.47 74.21Q123.55 74.28 122.50 74.38Q121.44 74.48 119.60 74.48L119.60 74.48Q118.72 74.48 118.17 74.31Q117.63 74.14 117.63 73.74L117.63 73.74Q117.63 73.26 118.17 72.95Q118.72 72.65 119.87 72.51L119.87 72.51Q121.85 72.24 122.60 71.11Q123.35 69.99 123.35 67.61L123.35 67.61Q123.35 62.70 123.25 58.75Q123.14 54.80 122.94 50.95Q122.73 47.11 122.53 42.54L122.53 42.54Q122.46 41.79 122.12 41.83Q121.78 41.86 121.44 42.54L121.44 42.54L105.78 74.48Q105.64 74.83 105.16 74.86Q104.69 74.89 104.55 74.42L104.55 74.42Q101.89 66.45 98.86 58.72Q95.83 50.99 92.02 42.07L92.02 42.07Q91.88 41.72 91.54 41.72Q91.20 41.72 91.13 42.07L91.13 42.07Q90.52 46.83 90.01 50.82Q89.50 54.80 89.23 58.68Q88.95 62.57 88.95 67.20L88.95 67.20Q88.95 69.04 90.11 70.57Q91.27 72.10 93.38 72.51L93.38 72.51Q94.54 72.71 95.08 72.99Q95.63 73.26 95.63 73.74L95.63 73.74Q95.63 74.14 95.08 74.31Q94.54 74.48 93.65 74.48L93.65 74.48Q91.81 74.48 90.89 74.38Q89.97 74.28 89.26 74.21Q88.54 74.14 87.25 74.14L87.25 74.14Q86.02 74.14 85.34 74.21Q84.66 74.28 83.78 74.38Q82.89 74.48 81.05 74.48Z"/><path d="M163.63 71.71L162.20 71.71L146.00 27.42L151.59 27.42L165.08 63.87L177.70 27.42L178.93 27.42L163.63 71.71ZM140.96 27.42L146.58 27.42L146.58 69.99L150.89 69.99L150.89 71.13L141.25 71.13L141.25 69.99L145.38 69.99L145.38 28.55L140.96 28.55L140.96 27.42ZM178.61 27.42L188.22 27.42L188.22 28.55L184.14 28.55L184.14 69.99L188.22 69.99L188.22 71.13L173.91 71.13L173.91 69.99L178.61 69.99L178.61 27.42Z"/>
            </svg>